g release
v 0.0006421673 0.0007203908 -0.006132566
v 0.0006421673 -0.000772075 -0.006429441
v 0.004763872 -0.000772075 -0.006429441
v 0.004763872 0.0007203908 -0.006132566
v 0.0006421673 0.001985639 -0.005287148
v 0.004763872 0.001985639 -0.005287143
v 0.0006421673 0.002831045 -0.004021891
v 0.004763872 0.002831045 -0.004021891
v 0.0006421673 0.003127909 -0.002529423
v 0.004763872 0.003127909 -0.002529423
v 0.0006421673 0.003127889 0.002496495
v 0.004763872 0.003127889 0.002496495
v 0.004763872 0.002831015 0.003988961
v 0.0006421673 0.002831015 0.003988961
v 0.004763872 0.001985596 0.005254207
v 0.0006421673 0.001985596 0.005254207
v 0.004763872 0.0007203417 0.006099623
v 0.0006421673 0.0007203417 0.006099616
v 0.004763872 -0.0007721239 0.006396484
v 0.0006421673 -0.0007721239 0.006396484
v 0.004763872 -0.00226459 0.006099612
v 0.0006421673 -0.00226459 0.006099604
v 0.004763872 -0.003529838 0.005254188
v 0.0006421673 -0.003529838 0.005254183
v 0.004763872 -0.004375244 0.003988931
v 0.0006421673 -0.004375244 0.003988933
v 0.004763872 -0.004672108 0.002496468
v 0.0006421673 -0.004672108 0.002496463
v 0.0006421673 -0.004672089 -0.002529453
v 0.004763872 -0.004672089 -0.002529458
v 0.0006421673 -0.004375214 -0.004021924
v 0.004763872 -0.004375214 -0.004021919
v 0.0006421673 -0.003529796 -0.005287169
v 0.004763872 -0.003529796 -0.005287169
v 0.0006421673 -0.002264541 -0.006132578
v 0.004763872 -0.002264541 -0.006132578
v 0.0006421673 -0.000772075 -0.006429441
v 0.004763872 -0.000772075 -0.006429441
v 0.0006421673 0.0007203417 0.006099616
v 0.0006421673 -0.0007721239 0.006396484
v 0.0006421673 -0.00226459 0.006099604
v 0.0006421673 0.001985596 0.005254207
v 0.0006421673 -0.003529838 0.005254183
v 0.0006421673 0.002831015 0.003988961
v 0.0006421673 -0.004375244 0.003988933
v 0.0006421673 0.003127889 0.002496495
v 0.0006421673 -0.004672108 0.002496463
v 0.0006421673 0.003127909 -0.002529423
v 0.0006421673 -0.004672089 -0.002529453
v 0.0006421673 0.002831045 -0.004021891
v 0.0006421673 -0.004375214 -0.004021924
v 0.0006421673 -0.003529796 -0.005287169
v 0.0006421673 0.001985639 -0.005287148
v 0.0006421673 0.0007203908 -0.006132566
v 0.0006421673 -0.002264541 -0.006132578
v 0.0006421673 -0.000772075 -0.006429441
v 0.03094831 -0.02968646 -0.002977356
v 0.02874701 -0.02968646 -0.002977356
v 0.02874701 -0.03091744 -0.002732505
v 0.03094831 -0.03091744 -0.002732505
v 0.02874701 -0.03196102 -0.00203522
v 0.03094831 -0.03196102 -0.00203522
v 0.02874701 -0.03265831 -0.0009916406
v 0.03094831 -0.03265831 -0.0009916406
v 0.02874701 -0.03290318 0.0002393278
v 0.03094831 -0.03290318 0.0002393278
v 0.02874701 -0.03265833 0.001470305
v 0.03094831 -0.03265833 0.001470305
v 0.02874701 -0.03196104 0.002513885
v 0.03094831 -0.03196104 0.002513885
v 0.03094831 -0.03091747 0.003211185
v 0.02874701 -0.03091747 0.003211185
v 0.02874701 -0.02968649 0.003456041
v 0.03094831 -0.02968649 0.003456041
v 0.03094831 0.002537645 0.003456173
v 0.02874701 0.002537645 0.003456173
v 0.02874701 0.003768625 0.003211317
v 0.03094831 0.003768625 0.003211317
v 0.02874701 0.004812205 0.00251403
v 0.03094831 0.004812205 0.00251403
v 0.02874701 0.005509499 0.001470458
v 0.03094831 0.005509499 0.001470458
v 0.02874701 0.00575436 0.0002394848
v 0.03094831 0.00575436 0.0002394848
v 0.02874701 0.005509509 -0.0009914903
v 0.03094831 0.005509509 -0.0009914903
v 0.02874701 0.004812217 -0.002035075
v 0.03094831 0.004812217 -0.002035075
v 0.02874701 0.003768648 -0.002732363
v 0.03094831 0.003768648 -0.002732363
v 0.02874701 0.002537674 -0.002977223
v 0.03094831 0.002537674 -0.002977223
v 0.02874701 -0.02968646 -0.002977356
v 0.03094831 -0.02968646 -0.002977356
v 0.03094831 0.005509499 0.001470458
v 0.03094831 0.00575436 0.0002394848
v 0.03094831 0.005509509 -0.0009914903
v 0.03094831 0.004812205 0.00251403
v 0.03094831 0.004812217 -0.002035075
v 0.03094831 0.003768625 0.003211317
v 0.03094831 0.003768648 -0.002732363
v 0.03094831 0.002537645 0.003456173
v 0.03094831 0.002537674 -0.002977223
v 0.03094831 -0.02968649 0.003456041
v 0.03094831 -0.02968646 -0.002977356
v 0.03094831 -0.03091744 -0.002732505
v 0.03094831 -0.03091747 0.003211185
v 0.03094831 -0.03196104 0.002513885
v 0.03094831 -0.03196102 -0.00203522
v 0.03094831 -0.03265833 0.001470305
v 0.03094831 -0.03265831 -0.0009916406
v 0.03094831 -0.03290318 0.0002393278
vt 0.4566424 0.6210643
vt 0.4624932 0.6210643
vt 0.4624932 0.6052179
vt 0.4566424 0.6052179
vt 0.4507923 0.6210643
vt 0.4507923 0.6052179
vt 0.4449418 0.6210643
vt 0.4449418 0.6052179
vt 0.4390909 0.6210643
vt 0.4390913 0.6052179
vt 0.4197684 0.6210643
vt 0.4197684 0.6052179
vt 0.4139179 0.6052179
vt 0.4139179 0.6210643
vt 0.408068 0.6052179
vt 0.4080675 0.6210643
vt 0.4022172 0.6052179
vt 0.4022172 0.6210643
vt 0.3963667 0.6052179
vt 0.3963667 0.6210643
vt 0.3905168 0.6052179
vt 0.3905168 0.6210643
vt 0.3846659 0.6052179
vt 0.3846659 0.6210643
vt 0.3788159 0.6052179
vt 0.3788159 0.6210643
vt 0.3729655 0.6052179
vt 0.3729655 0.6210643
vt 0.3536424 0.6210643
vt 0.3536424 0.6052179
vt 0.347792 0.6210643
vt 0.347792 0.6052179
vt 0.3419416 0.6210643
vt 0.3419416 0.6052179
vt 0.3360912 0.6210643
vt 0.3360912 0.6052179
vt 0.3302407 0.6210643
vt 0.3302412 0.6052179
vt 0.2035218 0.3603686
vt 0.2092593 0.3615098
vt 0.2149975 0.3603686
vt 0.1986572 0.3571183
vt 0.219862 0.3571183
vt 0.1954066 0.3522537
vt 0.2231124 0.3522537
vt 0.1942655 0.3465154
vt 0.2242537 0.3465154
vt 0.1942655 0.3271932
vt 0.2242537 0.3271932
vt 0.1954066 0.3214548
vt 0.2231124 0.3214548
vt 0.219862 0.3165902
vt 0.1986572 0.3165902
vt 0.2035218 0.3133403
vt 0.2149975 0.3133403
vt 0.2092593 0.3121988
vt 0.9661935 0.003581522
vt 0.9577299 0.003581522
vt 0.9577299 0.008407042
vt 0.9661935 0.008407042
vt 0.9577299 0.01323187
vt 0.9661935 0.01323187
vt 0.9577299 0.01805727
vt 0.9661935 0.01805727
vt 0.9577299 0.02288198
vt 0.9661935 0.02288198
vt 0.9577299 0.02770745
vt 0.9661935 0.02770745
vt 0.9577299 0.0325325
vt 0.9661933 0.0325325
vt 0.9661935 0.03735751
vt 0.9577299 0.03735751
vt 0.9577299 0.04218291
vt 0.9661933 0.04218291
vt 0.9661935 0.1660703
vt 0.9577299 0.1660703
vt 0.9577299 0.1708959
vt 0.9661933 0.1708959
vt 0.9577299 0.1757209
vt 0.9661933 0.1757209
vt 0.9577299 0.1805468
vt 0.9661935 0.1805468
vt 0.9577299 0.1853717
vt 0.9661933 0.1853717
vt 0.9577299 0.1901974
vt 0.9661933 0.1901974
vt 0.9577299 0.1950228
vt 0.9661933 0.1950228
vt 0.9577299 0.1998482
vt 0.9661935 0.1998482
vt 0.9577299 0.2046736
vt 0.9661935 0.2046736
vt 0.9577299 0.3285637
vt 0.9661935 0.3285637
vt 0.161811 0.3650402
vt 0.1570784 0.3640987
vt 0.1523457 0.3650402
vt 0.1658231 0.367721
vt 0.1483335 0.367721
vt 0.1685038 0.3717331
vt 0.1456526 0.3717331
vt 0.1694452 0.3764656
vt 0.1447114 0.3764656
vt 0.1694452 0.5003552
vt 0.1447114 0.5003552
vt 0.1456526 0.5050879
vt 0.1685038 0.5050879
vt 0.1658231 0.5090998
vt 0.1483335 0.5090998
vt 0.161811 0.5117809
vt 0.1523457 0.5117809
vt 0.1570784 0.5127223
vn 2.384186E-07 0.3825684 -0.9238281
vn 0 3.635883E-06 -1
vn 0 3.635883E-06 -1
vn 2.384186E-07 0.3825684 -0.9238281
vn 4.172325E-07 0.7070313 -0.7070313
vn 4.172325E-07 0.7070313 -0.7070313
vn 1.788139E-07 0.9238281 -0.3825684
vn 1.788139E-07 0.9238281 -0.3825684
vn 0 0.9951172 -0.09802246
vn 0 0.9951172 -0.09802246
vn 0 0.9951172 0.09802246
vn 0 0.9951172 0.09802246
vn 0 0.9238281 0.3825684
vn 0 0.9238281 0.3825684
vn -3.576279E-07 0.7070313 0.7070313
vn -3.576279E-07 0.7070313 0.7070313
vn -7.748604E-07 0.3825684 0.9238281
vn -7.748604E-07 0.3825684 0.9238281
vn -8.940697E-07 -3.635883E-06 1
vn -8.940697E-07 -3.635883E-06 1
vn -1.072884E-06 -0.3825684 0.9238281
vn -1.072884E-06 -0.3825684 0.9238281
vn -7.152557E-07 -0.7070313 0.7070313
vn -7.152557E-07 -0.7070313 0.7070313
vn -1.192093E-07 -0.9238281 0.3825684
vn -1.192093E-07 -0.9238281 0.3825684
vn 0 -0.9951172 0.09802246
vn 0 -0.9951172 0.09802246
vn 0 -0.9951172 -0.09802246
vn 0 -0.9951172 -0.09802246
vn 1.788139E-07 -0.9238281 -0.3825684
vn 1.788139E-07 -0.9238281 -0.3825684
vn 1.788139E-07 -0.7070313 -0.7070313
vn 1.788139E-07 -0.7070313 -0.7070313
vn 0 -0.3825684 -0.9238281
vn 0 -0.3825684 -0.9238281
vn 0 3.635883E-06 -1
vn 0 3.635883E-06 -1
vn -1 0 0
vn -1 0 0
vn -1 0 0
vn -1 0 0
vn -1 0 0
vn -1 0 0
vn -1 0 0
vn -1 0 0
vn -1 0 0
vn -1 0 0
vn -1 0 0
vn -1 0 0
vn -1 0 0
vn -1 0 0
vn -1 0 0
vn -1 0 0
vn -1 0 0
vn -1 0 0
vn 0 -0.09802246 -0.9951172
vn 0 -0.09802246 -0.9951172
vn 0 -0.3825684 -0.9238281
vn 0 -0.3825684 -0.9238281
vn 0 -0.7070313 -0.7070313
vn 0 -0.7070313 -0.7070313
vn 0 -0.9238281 -0.3825684
vn 0 -0.9238281 -0.3825684
vn 0 -1 -4.827976E-06
vn 0 -1 -4.827976E-06
vn 0 -0.9238281 0.3825684
vn 0 -0.9238281 0.3825684
vn 0 -0.7070313 0.7070313
vn 0 -0.7070313 0.7070313
vn 0 -0.3825684 0.9238281
vn 0 -0.3825684 0.9238281
vn 0 -0.09802246 0.9951172
vn 0 -0.09802246 0.9951172
vn 0 0.09802246 0.9951172
vn 0 0.09802246 0.9951172
vn 0 0.3825684 0.9238281
vn 0 0.3825684 0.9238281
vn 0 0.7070313 0.7070313
vn 0 0.7070313 0.7070313
vn 0 0.9238281 0.3825684
vn 0 0.9238281 0.3825684
vn 0 1 3.814697E-06
vn 0 1 3.814697E-06
vn 0 0.9238281 -0.3825684
vn 0 0.9238281 -0.3825684
vn 0 0.7070313 -0.7070313
vn 0 0.7070313 -0.7070313
vn 0 0.3825684 -0.9238281
vn 0 0.3825684 -0.9238281
vn 0 0.09802246 -0.9951172
vn 0 0.09802246 -0.9951172
vn 0 -0.09802246 -0.9951172
vn 0 -0.09802246 -0.9951172
vn 1 0 0
vn 1 0 0
vn 1 0 0
vn 1 0 0
vn 1 0 0
vn 1 0 0
vn 1 0 0
vn 1 0 0
vn 1 0 0
vn 1 0 0
vn 1 0 0
vn 1 0 0
vn 1 0 0
vn 1 0 0
vn 1 0 0
vn 1 0 0
vn 1 0 0
vn 1 0 0
g release_0
f 3/3/3 2/2/2 1/1/1
f 4/4/4 3/3/3 1/1/1
f 4/4/4 1/1/1 5/5/5
f 6/6/6 4/4/4 5/5/5
f 6/6/6 5/5/5 7/7/7
f 8/8/8 6/6/6 7/7/7
f 8/8/8 7/7/7 9/9/9
f 10/10/10 8/8/8 9/9/9
f 9/9/9 11/11/11 10/10/10
f 11/11/11 12/12/12 10/10/10
f 13/13/13 12/12/12 11/11/11
f 14/14/14 13/13/13 11/11/11
f 15/15/15 13/13/13 14/14/14
f 16/16/16 15/15/15 14/14/14
f 17/17/17 15/15/15 16/16/16
f 18/18/18 17/17/17 16/16/16
f 19/19/19 17/17/17 18/18/18
f 20/20/20 19/19/19 18/18/18
f 21/21/21 19/19/19 20/20/20
f 22/22/22 21/21/21 20/20/20
f 23/23/23 21/21/21 22/22/22
f 24/24/24 23/23/23 22/22/22
f 25/25/25 23/23/23 24/24/24
f 26/26/26 25/25/25 24/24/24
f 27/27/27 25/25/25 26/26/26
f 28/28/28 27/27/27 26/26/26
f 27/27/27 28/28/28 29/29/29
f 30/30/30 27/27/27 29/29/29
f 30/30/30 29/29/29 31/31/31
f 32/32/32 30/30/30 31/31/31
f 32/32/32 31/31/31 33/33/33
f 34/34/34 32/32/32 33/33/33
f 34/34/34 33/33/33 35/35/35
f 36/36/36 34/34/34 35/35/35
f 36/36/36 35/35/35 37/37/37
f 38/38/38 36/36/36 37/37/37
f 41/41/41 40/40/40 39/39/39
f 41/41/41 39/39/39 42/42/42
f 43/43/43 41/41/41 42/42/42
f 43/43/43 42/42/42 44/44/44
f 45/45/45 43/43/43 44/44/44
f 45/45/45 44/44/44 46/46/46
f 47/47/47 45/45/45 46/46/46
f 47/47/47 46/46/46 48/48/48
f 49/49/49 47/47/47 48/48/48
f 49/49/49 48/48/48 50/50/50
f 51/51/51 49/49/49 50/50/50
f 52/52/52 51/51/51 50/50/50
f 53/53/53 52/52/52 50/50/50
f 53/53/53 54/54/54 52/52/52
f 54/54/54 55/55/55 52/52/52
f 54/54/54 56/56/56 55/55/55
f 59/59/59 58/58/58 57/57/57
f 60/60/60 59/59/59 57/57/57
f 61/61/61 59/59/59 60/60/60
f 62/62/62 61/61/61 60/60/60
f 63/63/63 61/61/61 62/62/62
f 64/64/64 63/63/63 62/62/62
f 65/65/65 63/63/63 64/64/64
f 66/66/66 65/65/65 64/64/64
f 67/67/67 65/65/65 66/66/66
f 68/68/68 67/67/67 66/66/66
f 69/69/69 67/67/67 68/68/68
f 70/70/70 69/69/69 68/68/68
f 70/70/70 71/71/71 69/69/69
f 71/71/71 72/72/72 69/69/69
f 73/73/73 72/72/72 71/71/71
f 74/74/74 73/73/73 71/71/71
f 73/73/73 74/74/74 75/75/75
f 76/76/76 73/73/73 75/75/75
f 77/77/77 76/76/76 75/75/75
f 78/78/78 77/77/77 75/75/75
f 79/79/79 77/77/77 78/78/78
f 80/80/80 79/79/79 78/78/78
f 81/81/81 79/79/79 80/80/80
f 82/82/82 81/81/81 80/80/80
f 83/83/83 81/81/81 82/82/82
f 84/84/84 83/83/83 82/82/82
f 85/85/85 83/83/83 84/84/84
f 86/86/86 85/85/85 84/84/84
f 87/87/87 85/85/85 86/86/86
f 88/88/88 87/87/87 86/86/86
f 89/89/89 87/87/87 88/88/88
f 90/90/90 89/89/89 88/88/88
f 91/91/91 89/89/89 90/90/90
f 92/92/92 91/91/91 90/90/90
f 91/91/91 92/92/92 93/93/93
f 92/92/92 94/94/94 93/93/93
f 97/97/97 96/96/96 95/95/95
f 97/97/97 95/95/95 98/98/98
f 99/99/99 97/97/97 98/98/98
f 99/99/99 98/98/98 100/100/100
f 101/101/101 99/99/99 100/100/100
f 101/101/101 100/100/100 102/102/102
f 103/103/103 101/101/101 102/102/102
f 102/102/102 104/104/104 103/103/103
f 104/104/104 105/105/105 103/103/103
f 106/106/106 105/105/105 104/104/104
f 107/107/107 106/106/106 104/104/104
f 107/107/107 108/108/108 106/106/106
f 108/108/108 109/109/109 106/106/106
f 108/108/108 110/110/110 109/109/109
f 110/110/110 111/111/111 109/109/109
f 110/110/110 112/112/112 111/111/111
