g lnchr_release_LOD0
v 0.003105053 -0.0004501343 0.009164989
v 0.003558107 0.002130566 0.009165731
v 0.003559212 -0.0004453468 0.009164982
v 0.003105127 0.001924591 0.009165412
v 0.002296607 -0.0004586792 0.009164998
v 0.002296032 0.002064094 0.009164989
v 0.003104725 0.002856922 0.009165688
v 0.003557601 0.003300934 0.009166075
v 0.002100429 0.003300934 0.009166076
v 0.002170646 0.002856922 0.009165685
v -0.002332245 0.003300953 0.00916608
v -0.002525001 0.00279192 0.009165865
v -0.002800829 0.002064133 0.009164994
v -0.004014642 0.002771301 0.009165928
v -0.00401451 0.003300972 0.009166081
v -0.004015452 -0.0004452896 0.00916499
v -0.002803606 -0.000458641 0.009165003
v -0.004015443 0.007013492 -0.01923725
v -0.002804504 -0.002805595 -0.002491801
v -0.002804464 0.007013492 -0.01923724
v -0.004015485 -0.002805595 -0.002491798
v -0.002804496 -0.003231144 0.0002793193
v -0.004015476 -0.003231125 0.0002793217
v -0.00280448 -0.001604729 0.008134806
v -0.00401546 -0.001604729 0.008134807
v -0.002803606 -0.000458641 0.009165003
v -0.004015452 -0.0004452896 0.00916499
v -0.004014642 0.002771301 0.009165928
v -0.00401451 0.003300972 0.009166081
v -0.004014511 0.003313484 0.008260458
v -0.004014518 0.00339819 0.002135792
v -0.00401452 0.004103527 -0.002228093
v -0.00401451 0.008830928 -0.01715747
v -0.004014509 0.009222164 -0.01839302
v 0.002296032 0.002064094 0.009164989
v -0.002800177 0.001013222 -0.001416242
v -0.002800829 0.002064133 0.009164994
v 0.002295827 0.00100811 -0.001418309
v -0.002799482 0.008388233 -0.01871164
v 0.002295662 0.008378067 -0.01871577
v 0.002296808 0.006243725 -0.01792455
v 0.002296293 0.007627849 -0.01900247
v 0.00229681 0.007013473 -0.01923726
v 0.002296771 -0.002805633 -0.002491822
v 0.002296776 -0.003231182 0.0002792978
v 0.002296794 -0.001604767 0.008134801
v 0.002296607 -0.0004586792 0.009164998
v -0.002804464 0.007013492 -0.01923724
v -0.004014509 0.009222164 -0.01839302
v -0.004015443 0.007013492 -0.01923725
v -0.002799482 0.008388233 -0.01871164
v -0.002331933 0.009222145 -0.01839302
v 0.002101054 0.009222107 -0.01839302
v 0.002101005 0.008830852 -0.01715747
v 0.002295662 0.008378067 -0.01871577
v -0.002331958 0.00883091 -0.01715747
v -0.00401451 0.008830928 -0.01715747
v -0.00401452 0.004103527 -0.002228093
v -0.002332265 0.004103508 -0.002228095
v -0.004014518 0.00339819 0.002135792
v 0.003557603 0.009222107 -0.01839302
v 0.003558201 0.0084091 -0.01870378
v 0.003557602 0.008830852 -0.01715747
v 0.003558761 0.007644634 -0.01899598
v 0.002296293 0.007627849 -0.01900247
v 0.00229681 0.007013473 -0.01923726
v 0.003559227 0.007013492 -0.01923725
v 0.003557591 0.004103489 -0.0022281
v 0.002100403 0.004103489 -0.0022281
v 0.003557594 0.003398132 0.002135785
v -0.002332263 0.00339817 0.002135789
v 0.002100403 0.003398132 0.002135785
v 0.002100427 0.003313446 0.008260448
v 0.0035576 0.003313446 0.008260447
v 0.003557601 0.003300934 0.009166075
v 0.002100429 0.003300934 0.009166076
v -0.002332245 0.003300953 0.00916608
v -0.002332249 0.003313465 0.008260456
v -0.004014511 0.003313484 0.008260458
v -0.00401451 0.003300972 0.009166081
v -0.002804464 0.007013492 -0.01923724
v -0.002800177 0.001013222 -0.001416242
v -0.002799482 0.008388233 -0.01871164
v -0.002804504 -0.002805595 -0.002491801
v -0.002804496 -0.003231144 0.0002793193
v -0.00280448 -0.001604729 0.008134806
v -0.002800829 0.002064133 0.009164994
v -0.002803606 -0.000458641 0.009165003
v 0.0035576 0.003313446 0.008260447
v 0.003558107 0.002130566 0.009165731
v 0.003557601 0.003300934 0.009166075
v 0.003558021 0.002143097 0.008295661
v 0.003557594 0.003398132 0.002135785
v 0.003558768 6.015777E-05 0.008358317
v 0.003559212 -0.0004453468 0.009164982
v 0.003557877 0.002227783 0.001808031
v 0.003557591 0.004103489 -0.0022281
v 0.003559208 -0.001604767 0.0081348
v 0.003105053 -0.0004501343 0.009164989
v 0.003558909 -0.000690422 0.00771392
v 0.003558913 -0.002087822 0.0005994868
v 0.003557862 0.002933121 -0.002272775
v 0.003558897 -0.001560783 -0.002444312
v 0.003558165 0.007938518 -0.01743521
v 0.003557602 0.008830852 -0.01715747
v 0.003557603 0.009222107 -0.01839302
v 0.003558201 0.0084091 -0.01870378
v 0.003558761 0.007644634 -0.01899598
v 0.003558773 0.006972408 -0.01773591
v 0.003559227 0.007013492 -0.01923725
v 0.003559223 0.006262951 -0.01795732
v 0.00229681 0.007013473 -0.01923726
v 0.002296808 0.006243725 -0.01792455
v 0.003559185 -0.002805633 -0.002491825
v 0.002296771 -0.002805633 -0.002491822
v 0.00355919 -0.003231182 0.0002792954
v 0.002296776 -0.003231182 0.0002792978
v 0.003105142 -0.001604767 0.008134801
v 0.002296794 -0.001604767 0.008134801
v 0.002296607 -0.0004586792 0.009164998
v 0.003966875 0.00203083 4.076958E-07
v 0.003330958 0.00143589 0.001436703
v 0.00333096 0.00203083 4.076958E-07
v 0.003966875 0.00143589 0.001436703
v 0.003330951 -4.196167E-07 0.002031634
v 0.003966873 0.00143589 -0.001435893
v 0.003330954 0.00143589 -0.001435893
v 0.003966869 -4.196167E-07 0.002031634
v 0.003330941 -0.001436691 0.001436703
v 0.00396686 -0.001436691 0.001436703
v 0.003330936 -0.002031632 4.076958E-07
v 0.00396686 -4.196167E-07 -0.002030833
v 0.003330945 -4.196167E-07 -0.002030833
v 0.003966855 -0.001436691 -0.001435893
v 0.003330938 -0.001436691 -0.001435893
v 0.003966855 -0.002031632 4.076958E-07
v 0.004015427 -4.196167E-07 0.001366427
v 0.004015421 -4.196167E-07 -0.001365616
v 0.004015422 -0.0009663391 0.0009663319
v 0.003695657 -4.196167E-07 4.076958E-07
v 0.004015433 0.0009654998 0.0009663271
v 0.004015435 0.001365623 4.076958E-07
v 0.004015431 0.0009654998 -0.0009655165
v 0.004015416 -0.0009663391 -0.0009655165
v 0.004015417 -0.001366424 4.076958E-07
vt 0.9729413 0.4584503
vt 0.9902681 0.4552148
vt 0.9734998 0.4552148
vt 0.9896805 0.4586144
vt 0.9717565 0.4646443
vt 0.9896805 0.4646443
vt 0.995126 0.4586144
vt 0.9983833 0.4552148
vt 0.9983833 0.4658318
vt 0.9952134 0.4653611
vt 0.9983833 0.4987413
vt 0.9952243 0.5002307
vt 0.9896805 0.5025166
vt 0.9952285 0.511449
vt 0.9983833 0.511449
vt 0.9734962 0.511449
vt 0.9734962 0.5025166
vt 0.9313831 0.5301702
vt 0.9177866 0.5906342
vt 0.9281108 0.5294939
vt 0.9211367 0.5906137
vt 0.9196435 0.6004741
vt 0.9227164 0.599067
vt 0.9329005 0.622418
vt 0.9349075 0.619308
vt 0.9397689 0.6248605
vt 0.9391886 0.6206083
vt 0.9479028 0.6166439
vt 0.9495059 0.6159146
vt 0.9486158 0.6132359
vt 0.9427865 0.5956878
vt 0.9402707 0.5824046
vt 0.9384449 0.53375
vt 0.9382927 0.5297245
vt 0.3851743 0.3662417
vt 0.3934138 0.3509153
vt 0.3934138 0.3662417
vt 0.3851743 0.3509153
vt 0.3934138 0.3240885
vt 0.3851743 0.3240885
vt 0.3831576 0.326226
vt 0.3842457 0.3240885
vt 0.3834289 0.3240885
vt 0.379918 0.3509153
vt 0.3797158 0.3538523
vt 0.3809011 0.3646258
vt 0.3822114 0.3662417
vt 0.9432805 0.1081287
vt 0.9493836 0.121379
vt 0.949366 0.1081278
vt 0.9432547 0.1163766
vt 0.9409196 0.121379
vt 0.9186169 0.1213798
vt 0.9186046 0.1285809
vt 0.9176517 0.116316
vt 0.9409319 0.1285809
vt 0.9494066 0.1285809
vt 0.9494066 0.2155985
vt 0.9409319 0.2155985
vt 0.9494066 0.240427
vt 0.9112889 0.1213802
vt 0.9113056 0.1165036
vt 0.9112685 0.1285809
vt 0.9113042 0.1119165
vt 0.9176478 0.1118153
vt 0.9176441 0.1081292
vt 0.9113004 0.1081292
vt 0.9112685 0.2155985
vt 0.9186065 0.2155985
vt 0.9112685 0.240427
vt 0.9409319 0.240427
vt 0.9186065 0.240427
vt 0.9186065 0.2744639
vt 0.9112685 0.2744639
vt 0.9112685 0.2794966
vt 0.9186065 0.2794966
vt 0.9409319 0.2794966
vt 0.9409319 0.2744639
vt 0.9494066 0.2744639
vt 0.9494066 0.2794966
vt 0.3836472 0.3240885
vt 0.3853822 0.3509153
vt 0.3853822 0.3240885
vt 0.3801364 0.3509153
vt 0.379932 0.3538523
vt 0.3811226 0.3646258
vt 0.3853822 0.3662417
vt 0.3824332 0.3662417
vt 0.8095585 0.2902838
vt 0.8020887 0.2959507
vt 0.8095585 0.2959507
vt 0.8020964 0.2906143
vt 0.8095585 0.2531596
vt 0.7893961 0.2912013
vt 0.7866541 0.2959507
vt 0.8020954 0.2512909
vt 0.8132169 0.2266443
vt 0.7792318 0.2899815
vt 0.7861393 0.2987987
vt 0.7847654 0.2873711
vt 0.7756727 0.2443971
vt 0.8060746 0.2264904
vt 0.7786466 0.225899
vt 0.8353979 0.1341072
vt 0.8408654 0.1357001
vt 0.843152 0.1281748
vt 0.8381681 0.1263721
vt 0.8334811 0.1246778
vt 0.8294819 0.1323812
vt 0.8295406 0.1232167
vt 0.8250884 0.1309593
vt 0.8236622 0.1192376
vt 0.819119 0.127086
vt 0.7710556 0.2257335
vt 0.7645817 0.2229703
vt 0.7686875 0.2425895
vt 0.7618586 0.2426062
vt 0.7769536 0.2915079
vt 0.7733672 0.294019
vt 0.7850487 0.3042508
vt 0.9137956 0.4255677
vt 0.9125363 0.4373738
vt 0.917532 0.4255677
vt 0.9098947 0.4347876
vt 0.9004758 0.4422643
vt 0.9098947 0.4163481
vt 0.9125363 0.4137617
vt 0.9004758 0.4386063
vt 0.888416 0.4373738
vt 0.8910582 0.4347876
vt 0.8834206 0.4255683
vt 0.9004758 0.4125299
vt 0.9004758 0.4088715
vt 0.8910582 0.4163481
vt 0.888416 0.4137617
vt 0.8871568 0.4255683
vt 0.9004758 0.4345926
vt 0.9004758 0.4165429
vt 0.8939571 0.4319495
vt 0.9004758 0.4255683
vt 0.9069954 0.4319495
vt 0.9096957 0.4255677
vt 0.9069954 0.4191862
vt 0.8939571 0.4191869
vt 0.8912571 0.4255683
vn 0.002836227 -0.3564453 0.934082
vn 0.7070313 8.59499E-05 0.7070313
vn 0.6367188 -0.2722168 0.7211914
vn -0.0005469322 -0.0001853704 1
vn -0.6333008 -0.2788086 0.722168
vn -0.2768555 -0.2941895 0.9145508
vn -0.0002846718 -0.0005846024 1
vn 0.5776367 0.5727539 0.5810547
vn 1.072884E-06 0.7016602 0.7124023
vn 1.2815E-05 -0.000869751 1
vn 3.355742E-05 0.7021484 0.7119141
vn 3.629923E-05 -0.000813961 1
vn 0.2768555 -0.2946777 0.9145508
vn -0.7070313 -0.0001512766 0.7070313
vn -0.578125 0.5727539 0.5810547
vn -0.6367188 -0.2722168 0.7211914
vn 0.6333008 -0.277832 0.722168
vn -0.5864258 -0.2683105 -0.7641602
vn 0.6669922 -0.7021484 -0.2495117
vn 0.5854492 -0.269043 -0.7646484
vn -0.6669922 -0.7016602 -0.2493896
vn 0.6689453 -0.7431641 0.01927185
vn -0.6694336 -0.7426758 0.01924133
vn 0.6425781 -0.6645508 0.3813477
vn -0.6430664 -0.6635742 0.3820801
vn 0.6333008 -0.277832 0.722168
vn -0.6367188 -0.2722168 0.7211914
vn -0.7070313 -0.0001512766 0.7070313
vn -0.578125 0.5727539 0.5810547
vn -0.7070313 0.7070313 0.009773254
vn -0.7241211 0.6875 0.05996704
vn -0.7241211 0.6713867 0.159668
vn -0.7070313 0.6743164 0.213501
vn -0.5805664 0.7333984 -0.3537598
vn -0.2768555 -0.2941895 0.9145508
vn 0.7666016 -0.6342773 -0.09716797
vn 0.2768555 -0.2946777 0.9145508
vn -0.7675781 -0.6333008 -0.09692383
vn 0.2912598 0.04418945 -0.9555664
vn -0.2927246 0.04486084 -0.9550781
vn -0.7070313 -0.6103516 -0.357666
vn -0.7070313 0.2519531 -0.6606445
vn -0.5864258 -0.2685547 -0.7641602
vn -0.6669922 -0.7021484 -0.2493896
vn -0.6694336 -0.7426758 0.01924133
vn -0.6425781 -0.6640625 0.3823242
vn -0.6333008 -0.2788086 0.722168
vn 0.5854492 -0.269043 -0.7646484
vn -0.5805664 0.7333984 -0.3537598
vn -0.5864258 -0.2683105 -0.7641602
vn 0.2912598 0.04418945 -0.9555664
vn 9.596348E-06 0.9003906 -0.4345703
vn -1.28746E-05 0.9008789 -0.4345703
vn 5.00679E-06 0.953125 0.302002
vn -0.2927246 0.04486084 -0.9550781
vn 1.15633E-05 0.953125 0.3017578
vn -0.7070313 0.6743164 0.213501
vn -0.7241211 0.6713867 0.159668
vn 8.225441E-06 0.9726563 0.2313232
vn -0.7241211 0.6875 0.05996704
vn 0.5800781 0.7333984 -0.3537598
vn 0.7070313 0.2529297 -0.6601563
vn 0.7070313 0.6743164 0.213501
vn 0.7070313 0.2529297 -0.6601563
vn -0.7070313 0.2519531 -0.6606445
vn -0.5864258 -0.2685547 -0.7641602
vn 0.5869141 -0.2680664 -0.7641602
vn 0.7236328 0.6713867 0.159668
vn 2.741814E-06 0.9726563 0.2313232
vn 0.7236328 0.6875 0.05996704
vn 9.059906E-06 0.9960938 0.08691406
vn 4.351139E-06 0.9960938 0.08691406
vn 2.622604E-06 1 0.01382446
vn 0.7070313 0.7070313 0.009757996
vn 0.5776367 0.5727539 0.5810547
vn 1.072884E-06 0.7016602 0.7124023
vn 3.355742E-05 0.7021484 0.7119141
vn 7.867813E-06 1 0.01382446
vn -0.7070313 0.7070313 0.009773254
vn -0.578125 0.5727539 0.5810547
vn 0.5854492 -0.269043 -0.7646484
vn 0.7666016 -0.6342773 -0.09716797
vn 0.2912598 0.04418945 -0.9555664
vn 0.6669922 -0.7021484 -0.2495117
vn 0.6689453 -0.7431641 0.01927185
vn 0.6425781 -0.6645508 0.3813477
vn 0.2768555 -0.2946777 0.9145508
vn 0.6333008 -0.277832 0.722168
vn 0.7070313 0.7070313 0.009757996
vn 0.7070313 8.59499E-05 0.7070313
vn 0.5776367 0.5727539 0.5810547
vn 1 0.0003449917 -5.823374E-05
vn 0.7236328 0.6875 0.05996704
vn 1 0.0003600121 -0.0002328157
vn 0.6367188 -0.2722168 0.7211914
vn 1 0.0002455711 2.026558E-06
vn 0.7236328 0.6713867 0.159668
vn 0.6430664 -0.6635742 0.3828125
vn 0.002836227 -0.3564453 0.934082
vn 1 0.0002963543 -7.498264E-05
vn 1 0.0002446175 -9.596348E-06
vn 1 0.0002313852 7.307529E-05
vn 1 0.0002303123 8.302927E-05
vn 1 0.0005726814 0.0002185106
vn 0.7070313 0.6743164 0.213501
vn 0.5800781 0.7333984 -0.3537598
vn 0.7070313 0.2529297 -0.6601563
vn 0.7070313 0.2529297 -0.6601563
vn 1 0.0005393028 0.000269413
vn 0.5869141 -0.2680664 -0.7641602
vn 0.7075195 -0.6098633 -0.357666
vn -0.5864258 -0.2685547 -0.7641602
vn -0.7070313 -0.6103516 -0.357666
vn 0.6674805 -0.7016602 -0.2493896
vn -0.6669922 -0.7021484 -0.2493896
vn 0.6694336 -0.7426758 0.01924133
vn -0.6694336 -0.7426758 0.01924133
vn 7.152557E-07 -0.8662109 0.4997559
vn -0.6425781 -0.6640625 0.3823242
vn -0.6333008 -0.2788086 0.722168
vn 0.6074219 0.7944336 -3.576279E-07
vn 0 0.7070313 0.7070313
vn 0 1 2.384186E-07
vn 0.6074219 0.5615234 0.5615234
vn 0 -6.139278E-06 1
vn 0.6074219 0.5615234 -0.5615234
vn 0 0.7070313 -0.7070313
vn 0.6074219 -5.960464E-06 0.7944336
vn 0 -0.7070313 0.7070313
vn 0.6074219 -0.5615234 0.5615234
vn 0 -1 2.980232E-07
vn 0.6074219 -6.377697E-06 -0.7944336
vn 0 -6.139278E-06 -1
vn 0.6074219 -0.5615234 -0.5615234
vn 0 -0.7070313 -0.7070313
vn 0.6074219 -0.7944336 -5.960464E-07
vn 0.9990234 -5.841255E-06 -0.040802
vn 0.9990234 -7.152557E-06 0.040802
vn 0.9990234 0.02885437 -0.02885437
vn 1 -4.827976E-06 -2.205372E-06
vn 0.9990234 -0.02886963 -0.02885437
vn 0.9990234 -0.040802 -1.907349E-06
vn 0.9990234 -0.02886963 0.02885437
vn 0.9990234 0.02885437 0.02885437
vn 0.9990234 0.040802 -3.099442E-06
g lnchr_release_LOD0_0
f 3/3/3 2/2/2 1/1/1
f 4/4/4 1/1/1 2/2/2
f 1/1/1 4/4/4 5/5/5
f 6/6/6 5/5/5 4/4/4
f 4/4/4 2/2/2 7/7/7
f 4/4/4 7/7/7 6/6/6
f 8/8/8 7/7/7 2/2/2
f 8/8/8 9/9/9 7/7/7
f 10/10/10 7/7/7 9/9/9
f 10/10/10 6/6/6 7/7/7
f 9/9/9 11/11/11 10/10/10
f 10/10/10 12/12/12 6/6/6
f 12/12/12 10/10/10 11/11/11
f 13/13/13 6/6/6 12/12/12
f 12/12/12 11/11/11 14/14/14
f 12/12/12 14/14/14 13/13/13
f 15/15/15 14/14/14 11/11/11
f 14/14/14 16/16/16 13/13/13
f 17/17/17 13/13/13 16/16/16
f 20/20/20 19/19/19 18/18/18
f 21/21/21 18/18/18 19/19/19
f 19/19/19 22/22/22 21/21/21
f 23/23/23 21/21/21 22/22/22
f 22/22/22 24/24/24 23/23/23
f 25/25/25 23/23/23 24/24/24
f 24/24/24 26/26/26 25/25/25
f 27/27/27 25/25/25 26/26/26
f 27/27/27 28/28/28 25/25/25
f 28/28/28 29/29/29 25/25/25
f 29/29/29 30/30/30 25/25/25
f 30/30/30 31/31/31 25/25/25
f 23/23/23 25/25/25 31/31/31
f 23/23/23 31/31/31 21/21/21
f 32/32/32 21/21/21 31/31/31
f 21/21/21 32/32/32 18/18/18
f 33/33/33 18/18/18 32/32/32
f 33/33/33 34/34/34 18/18/18
f 37/37/37 36/36/36 35/35/35
f 38/38/38 35/35/35 36/36/36
f 36/36/36 39/39/39 38/38/38
f 40/40/40 38/38/38 39/39/39
f 40/40/40 41/41/41 38/38/38
f 42/42/42 41/41/41 40/40/40
f 42/42/42 43/43/43 41/41/41
f 44/44/44 38/38/38 41/41/41
f 45/45/45 38/38/38 44/44/44
f 38/38/38 45/45/45 35/35/35
f 46/46/46 35/35/35 45/45/45
f 35/35/35 46/46/46 47/47/47
f 50/50/50 49/49/49 48/48/48
f 51/51/51 48/48/48 49/49/49
f 51/51/51 49/49/49 52/52/52
f 52/52/52 53/53/53 51/51/51
f 53/53/53 52/52/52 54/54/54
f 55/55/55 51/51/51 53/53/53
f 52/52/52 49/49/49 56/56/56
f 56/56/56 54/54/54 52/52/52
f 57/57/57 56/56/56 49/49/49
f 57/57/57 58/58/58 56/56/56
f 59/59/59 56/56/56 58/58/58
f 56/56/56 59/59/59 54/54/54
f 58/58/58 60/60/60 59/59/59
f 53/53/53 54/54/54 61/61/61
f 53/53/53 61/61/61 55/55/55
f 55/55/55 61/61/61 62/62/62
f 63/63/63 61/61/61 54/54/54
f 62/62/62 64/64/64 55/55/55
f 65/65/65 55/55/55 64/64/64
f 65/65/65 64/64/64 66/66/66
f 67/67/67 66/66/66 64/64/64
f 63/63/63 54/54/54 68/68/68
f 69/69/69 68/68/68 54/54/54
f 69/69/69 54/54/54 59/59/59
f 68/68/68 69/69/69 70/70/70
f 71/71/71 59/59/59 60/60/60
f 59/59/59 71/71/71 69/69/69
f 72/72/72 70/70/70 69/69/69
f 72/72/72 69/69/69 71/71/71
f 72/72/72 73/73/73 70/70/70
f 72/72/72 71/71/71 73/73/73
f 74/74/74 70/70/70 73/73/73
f 74/74/74 73/73/73 75/75/75
f 76/76/76 75/75/75 73/73/73
f 76/76/76 73/73/73 77/77/77
f 71/71/71 60/60/60 78/78/78
f 78/78/78 73/73/73 71/71/71
f 78/78/78 77/77/77 73/73/73
f 79/79/79 78/78/78 60/60/60
f 77/77/77 78/78/78 80/80/80
f 79/79/79 80/80/80 78/78/78
f 83/83/83 82/82/82 81/81/81
f 84/84/84 81/81/81 82/82/82
f 84/84/84 82/82/82 85/85/85
f 85/85/85 82/82/82 86/86/86
f 87/87/87 86/86/86 82/82/82
f 87/87/87 88/88/88 86/86/86
f 91/91/91 90/90/90 89/89/89
f 92/92/92 89/89/89 90/90/90
f 89/89/89 92/92/92 93/93/93
f 92/92/92 90/90/90 94/94/94
f 95/95/95 94/94/94 90/90/90
f 96/96/96 93/93/93 92/92/92
f 93/93/93 96/96/96 97/97/97
f 95/95/95 98/98/98 94/94/94
f 95/95/95 99/99/99 98/98/98
f 100/100/100 92/92/92 94/94/94
f 100/100/100 96/96/96 92/92/92
f 100/100/100 94/94/94 98/98/98
f 100/100/100 101/101/101 96/96/96
f 100/100/100 98/98/98 101/101/101
f 102/102/102 97/97/97 96/96/96
f 101/101/101 103/103/103 96/96/96
f 102/102/102 96/96/96 103/103/103
f 102/102/102 104/104/104 97/97/97
f 105/105/105 97/97/97 104/104/104
f 105/105/105 104/104/104 106/106/106
f 107/107/107 106/106/106 104/104/104
f 107/107/107 104/104/104 108/108/108
f 104/104/104 102/102/102 109/109/109
f 109/109/109 108/108/108 104/104/104
f 103/103/103 109/109/109 102/102/102
f 108/108/108 109/109/109 110/110/110
f 111/111/111 110/110/110 109/109/109
f 109/109/109 103/103/103 111/111/111
f 110/110/110 111/111/111 112/112/112
f 113/113/113 112/112/112 111/111/111
f 114/114/114 111/111/111 103/103/103
f 111/111/111 114/114/114 113/113/113
f 103/103/103 101/101/101 114/114/114
f 115/115/115 113/113/113 114/114/114
f 116/116/116 114/114/114 101/101/101
f 114/114/114 116/116/116 115/115/115
f 116/116/116 101/101/101 98/98/98
f 117/117/117 115/115/115 116/116/116
f 116/116/116 98/98/98 118/118/118
f 117/117/117 116/116/116 118/118/118
f 118/118/118 98/98/98 99/99/99
f 117/117/117 118/118/118 119/119/119
f 118/118/118 99/99/99 119/119/119
f 120/120/120 119/119/119 99/99/99
f 123/123/123 122/122/122 121/121/121
f 124/124/124 121/121/121 122/122/122
f 122/122/122 125/125/125 124/124/124
f 121/121/121 126/126/126 123/123/123
f 127/127/127 123/123/123 126/126/126
f 128/128/128 124/124/124 125/125/125
f 125/125/125 129/129/129 128/128/128
f 130/130/130 128/128/128 129/129/129
f 129/129/129 131/131/131 130/130/130
f 126/126/126 132/132/132 127/127/127
f 133/133/133 127/127/127 132/132/132
f 132/132/132 134/134/134 133/133/133
f 135/135/135 133/133/133 134/134/134
f 131/131/131 135/135/135 136/136/136
f 136/136/136 130/130/130 131/131/131
f 134/134/134 136/136/136 135/135/135
f 128/128/128 130/130/130 137/137/137
f 128/128/128 137/137/137 124/124/124
f 132/132/132 126/126/126 138/138/138
f 132/132/132 138/138/138 134/134/134
f 130/130/130 136/136/136 139/139/139
f 139/139/139 137/137/137 130/130/130
f 137/137/137 139/139/139 140/140/140
f 141/141/141 124/124/124 137/137/137
f 140/140/140 141/141/141 137/137/137
f 141/141/141 142/142/142 124/124/124
f 142/142/142 141/141/141 140/140/140
f 121/121/121 124/124/124 142/142/142
f 126/126/126 121/121/121 143/143/143
f 142/142/142 143/143/143 121/121/121
f 143/143/143 138/138/138 126/126/126
f 140/140/140 143/143/143 142/142/142
f 138/138/138 143/143/143 140/140/140
f 144/144/144 134/134/134 138/138/138
f 134/134/134 144/144/144 136/136/136
f 144/144/144 138/138/138 140/140/140
f 145/145/145 139/139/139 136/136/136
f 140/140/140 139/139/139 145/145/145
f 145/145/145 144/144/144 140/140/140
f 145/145/145 136/136/136 144/144/144
