g bolt_LOD0
v -0.012171 0.01262 0.006013
v -0.012171 -0.06466 0.006013
v -0.014062 -0.064658 0.001174
v -0.019482 0.012499 -0.010329
v -0.019481 0.026767 -0.010325
v -0.01217 0.026772 0.006013
v -0.019412 -0.064663 -0.010179
v -0.020745 -0.064665 -0.012298
v -0.020744 0.012497 -0.011982
v -0.020744 0.02707 -0.011949
v -0.017223 -0.215107 0.002971
v -0.017223 -0.212765 0.002971
v -0.031745 -0.213301 0.007058
v -0.031745 -0.214571 0.007058
v -0.016062 -0.217206 0.002661
v -0.015774 -0.211265 0.002583
v -0.009429 -0.211265 0.000884
v -0.009429 -0.216608 0.000884
v -0.013252 -0.220733 0.001848
v -0.009429 -0.220742 0.000884
v -0.009429 -0.211265 0.000884
v -0.009429 -0.216608 0.000884
v -0.008474 -0.216608 0.004449
v -0.008474 -0.211265 0.004449
v -0.009429 -0.220742 0.000884
v -0.008474 -0.220742 0.004449
v -0.016267 -0.215107 0.006536
v -0.016267 -0.212765 0.006536
v -0.014818 -0.211265 0.006148
v -0.015107 -0.217206 0.006225
v -0.03079 -0.213301 0.010623
v -0.03079 -0.214571 0.010623
v -0.008474 -0.216608 0.004449
v -0.012297 -0.220733 0.005413
v -0.008474 -0.220742 0.004449
v -0.008474 -0.211265 0.004449
v -0.03079 -0.214571 0.010623
v -0.031268 -0.215385 0.00884
v -0.031268 -0.212488 0.00884
v -0.03079 -0.213301 0.010623
v -0.031745 -0.214571 0.007058
v -0.031745 -0.213301 0.007058
v -0.008474 -0.211265 0.004449
v -0.014818 -0.211265 0.006148
v -0.015774 -0.211265 0.002583
v -0.009429 -0.211265 0.000884
v -0.016745 -0.211265 0.004754
v -0.009429 -0.220742 0.000884
v -0.013252 -0.220733 0.001848
v -0.012297 -0.220733 0.005413
v -0.008474 -0.220742 0.004449
v -0.015107 -0.217206 0.006225
v -0.016062 -0.217206 0.002661
v -0.016745 -0.216608 0.004754
v -0.017223 -0.215107 0.002971
v -0.016267 -0.215107 0.006536
v -0.012297 -0.220733 0.005413
v -0.013252 -0.220733 0.001848
v -0.016267 -0.212765 0.006536
v -0.016745 -0.211265 0.004754
v -0.014818 -0.211265 0.006148
v -0.031268 -0.212488 0.00884
v -0.03079 -0.213301 0.010623
v -0.016745 -0.211265 0.004754
v -0.017223 -0.212765 0.002971
v -0.015774 -0.211265 0.002583
v -0.031268 -0.212488 0.00884
v -0.031745 -0.213301 0.007058
v -0.031268 -0.215385 0.00884
v -0.016745 -0.216608 0.004754
v -0.017223 -0.215107 0.002971
v -0.031745 -0.214571 0.007058
v -0.016267 -0.215107 0.006536
v -0.016745 -0.216608 0.004754
v -0.031268 -0.215385 0.00884
v -0.03079 -0.214571 0.010623
vt 0.4267 0.6705
vt 0.4249 0.5624
vt 0.4176 0.5626
vt 0.4014 0.6711
vt 0.402 0.6912
vt 0.4274 0.6903
vt 0.4 0.5624
vt 0.3966 0.562
vt 0.3988 0.6711
vt 0.3994 0.6919
vt 0.0816 0.9707
vt 0.0783 0.9707
vt 0.0791 0.992
vt 0.0809 0.992
vt 0.0846 0.969
vt 0.0762 0.9686
vt 0.0762 0.9593
vt 0.0837 0.9593
vt 0.0896 0.9649
vt 0.0896 0.9593
vt 0.1588 0.9622
vt 0.1588 0.9547
vt 0.1536 0.9547
vt 0.1536 0.9622
vt 0.1588 0.9488
vt 0.1536 0.9488
vt 0.0619 0.9694
vt 0.0652 0.9693
vt 0.0672 0.9671
vt 0.0589 0.9678
vt 0.0652 0.9906
vt 0.0634 0.9906
vt 0.0594 0.9581
vt 0.0538 0.9638
vt 0.0536 0.9583
vt 0.0669 0.9578
vt 0.0115 0.2926
vt 0.0136 0.2907
vt 0.0098 0.289
vt 0.0098 0.2919
vt 0.0136 0.2879
vt 0.0119 0.2871
vt 0.0687 0.9589
vt 0.069 0.9682
vt 0.0742 0.968
vt 0.0739 0.9588
vt 0.0717 0.9704
vt 0.0484 0.9585
vt 0.0486 0.9641
vt 0.0538 0.9638
vt 0.0536 0.9583
vt 0.0541 0.9703
vt 0.049 0.9705
vt 0.0517 0.9725
vt 0.0484 0.9733
vt 0.055 0.973
vt 0.0538 0.9638
vt 0.0486 0.9641
vt 0.0683 0.9709
vt 0.0717 0.9704
vt 0.069 0.9682
vt 0.0722 0.9918
vt 0.0694 0.992
vt 0.0717 0.9704
vt 0.075 0.9707
vt 0.0742 0.968
vt 0.0722 0.9918
vt 0.075 0.9918
vt 0.053 0.994
vt 0.0517 0.9725
vt 0.0484 0.9733
vt 0.0502 0.9943
vt 0.055 0.973
vt 0.0517 0.9725
vt 0.053 0.994
vt 0.0559 0.994
vn -0.9149823 -0.001199977 0.4034922
vn -0.9171705 -0.002499919 0.3984872
vn -0.9116454 -0.001399916 0.4109754
vn -0.8661985 -0.0009999984 0.4996992
vn -0.8556876 -0.0003999942 0.5174925
vn -0.9128026 0 0.4084012
vn -0.8671146 -0.0005000084 0.4981084
vn -0.8238372 -0.001000045 0.5668256
vn -0.8082858 -0.0008999842 0.5887896
vn -0.7920957 -0.0006999961 0.6103967
vn -0.2632105 0 -0.9647384
vn -0.2634897 0 -0.9646622
vn -0.270902 0 -0.9626069
vn -0.270902 0 -0.9626069
vn -0.2572132 0.003100159 -0.9663497
vn -0.2587144 0 -0.9659539
vn -0.2587144 0 -0.9659539
vn -0.2565085 0.004400145 -0.9665319
vn -0.254108 0.009400294 -0.9671302
vn -0.254108 0.009400294 -0.9671302
vn 0.9659289 0 -0.2588077
vn 0.9659289 0 -0.2588077
vn 0.9659289 0 -0.2588077
vn 0.9659289 0 -0.2588077
vn 0.9659289 0 -0.2588077
vn 0.9659289 0 -0.2588077
vn 0.2633035 0 0.964713
vn 0.2636081 0 0.9646298
vn 0.2588077 0 0.9659289
vn 0.2572133 -0.003000155 0.96635
vn 0.270902 0 0.9626069
vn 0.270902 0 0.9626069
vn 0.2565085 -0.004400145 0.9665319
vn 0.254108 -0.009400294 0.9671302
vn 0.254108 -0.009400294 0.9671302
vn 0.2587144 0 0.9659539
vn -0.9659289 0 0.2588077
vn -0.9659289 0 0.2588077
vn -0.9659289 0 0.2588077
vn -0.9659289 0 0.2588077
vn -0.9659289 0 0.2588077
vn -0.9659289 0 0.2588077
vn 0 1 0
vn 0 1 0
vn 0 1 0
vn 0 1 0
vn 0 1 0
vn -0.002099995 -0.9999976 0.0005999986
vn -0.002099995 -0.9999976 0.0005999986
vn -0.002099995 -0.9999976 0.0005999986
vn -0.002099995 -0.9999976 0.0005999986
vn -0.6875828 -0.6539836 0.3154921
vn -0.7531971 -0.6538975 0.07149973
vn -0.6707152 -0.7196163 0.1797041
vn -0.8742765 -0.4605876 -0.1532959
vn -0.680525 -0.460517 0.569921
vn -0.7434898 -0.6383913 0.1991973
vn -0.7434898 -0.6383913 0.1991973
vn -0.1391077 0.7882439 0.5994334
vn -0.1219051 0.7943333 0.595125
vn -0.4632178 0.6130235 0.6400245
vn 0.0961022 0.8465194 0.523612
vn 0.0961022 0.8465194 0.523612
vn -0.4089018 0.7930036 -0.4516021
vn -0.4288962 0.7856932 -0.4457961
vn -0.7210956 0.6130963 -0.322698
vn -0.1912984 0.8459929 -0.4976958
vn -0.1912984 0.8459929 -0.4976958
vn -0.1912889 -0.8459507 -0.497771
vn -0.1912889 -0.8459507 -0.497771
vn -0.1912889 -0.8459507 -0.497771
vn -0.1912889 -0.8459507 -0.497771
vn 0.0961022 -0.8465194 0.523612
vn 0.0961022 -0.8465194 0.523612
vn 0.0961022 -0.8465194 0.523612
vn 0.0961022 -0.8465194 0.523612
g bolt_LOD0_0
f 3/3/3 2/2/2 1/1/1
f 4/4/4 3/3/3 1/1/1
f 4/4/4 1/1/1 5/5/5
f 1/1/1 6/6/6 5/5/5
f 4/4/4 7/7/7 3/3/3
f 7/7/7 4/4/4 8/8/8
f 4/4/4 9/9/9 8/8/8
f 4/4/4 5/5/5 9/9/9
f 5/5/5 10/10/10 9/9/9
f 13/13/13 12/12/12 11/11/11
f 14/14/14 13/13/13 11/11/11
f 11/11/11 12/12/12 15/15/15
f 12/12/12 16/16/16 15/15/15
f 16/16/16 17/17/17 15/15/15
f 17/17/17 18/18/18 15/15/15
f 15/15/15 18/18/18 19/19/19
f 18/18/18 20/20/20 19/19/19
f 23/23/23 22/22/22 21/21/21
f 24/24/24 23/23/23 21/21/21
f 25/25/25 22/22/22 23/23/23
f 26/26/26 25/25/25 23/23/23
f 29/29/29 28/28/28 27/27/27
f 30/30/30 29/29/29 27/27/27
f 27/27/27 28/28/28 31/31/31
f 32/32/32 27/27/27 31/31/31
f 29/29/29 30/30/30 33/33/33
f 30/30/30 34/34/34 33/33/33
f 34/34/34 35/35/35 33/33/33
f 36/36/36 29/29/29 33/33/33
f 39/39/39 38/38/38 37/37/37
f 40/40/40 39/39/39 37/37/37
f 38/38/38 39/39/39 41/41/41
f 39/39/39 42/42/42 41/41/41
f 45/45/45 44/44/44 43/43/43
f 46/46/46 45/45/45 43/43/43
f 47/47/47 44/44/44 45/45/45
f 50/50/50 49/49/49 48/48/48
f 51/51/51 50/50/50 48/48/48
f 54/54/54 53/53/53 52/52/52
f 53/53/53 54/54/54 55/55/55
f 52/52/52 56/56/56 54/54/54
f 52/52/52 53/53/53 57/57/57
f 53/53/53 58/58/58 57/57/57
f 61/61/61 60/60/60 59/59/59
f 59/59/59 60/60/60 62/62/62
f 63/63/63 59/59/59 62/62/62
f 66/66/66 65/65/65 64/64/64
f 67/67/67 64/64/64 65/65/65
f 68/68/68 67/67/67 65/65/65
f 71/71/71 70/70/70 69/69/69
f 72/72/72 71/71/71 69/69/69
f 75/75/75 74/74/74 73/73/73
f 76/76/76 75/75/75 73/73/73
